<?xml version="1.0" encoding="UTF-8" standalone="no"?>
<!DOCTYPE svg PUBLIC "-//W3C//DTD SVG 1.1//EN" "http://www.w3.org/Graphics/SVG/1.1/DTD/svg11.dtd">
<svg xmlns="http://www.w3.org/2000/svg" xmlns:xlink="http://www.w3.org/1999/xlink" xmlns:ev="http://www.w3.org/2001/xml-events"
		width="7.76098in" height="6.54151in" viewBox="0 0 558.79 470.989" xml:space="preserve" color-interpolation-filters="sRGB"
		class="st10">
	<style type="text/css">
	<![CDATA[
		.st1 {fill:#dde2cd;stroke:#000000;stroke-linecap:round;stroke-linejoin:round;stroke-width:0.24}
		.st2 {fill:#000000;font-family:Calibri;font-size:1.16666em;font-weight:bold}
		.st3 {font-size:1em}
		.st4 {fill:none;stroke:#000000;stroke-dasharray:5.25,3.75;stroke-linecap:round;stroke-linejoin:round;stroke-width:0.75}
		.st5 {fill:#000000;font-family:Calibri;font-size:1.16666em}
		.st6 {fill:#dde2cd;stroke:#000000;stroke-dasharray:1.68,1.2;stroke-linecap:round;stroke-linejoin:round;stroke-width:0.24}
		.st7 {stroke:#000000;stroke-linecap:round;stroke-linejoin:round;stroke-width:0.75}
		.st8 {fill:none;stroke:none;stroke-linecap:round;stroke-linejoin:round;stroke-width:0.75}
		.st9 {fill:#000000;font-family:Calibri;font-size:1.00001em}
		.st10 {fill:none;fill-rule:evenodd;font-size:12px;overflow:visible;stroke-linecap:square;stroke-miterlimit:3}
	]]>
	</style>

	<g>
		<g id="shape3-1" transform="translate(20.4189,-254.795)">
			<rect x="0" y="397.367" width="146.538" height="73.622" class="st1"/>
			<text x="37.12" y="413.18" class="st2">Визначення <tspan x="34.47" dy="1.2em" class="st3">необхідності </tspan><tspan
						x="21.35" dy="1.2em" class="st3">проведення ОВД </tspan><tspan x="19.86" dy="1.2em" class="st3">(</tspan>Попередня ОВД)</text>		</g>
		<g id="shape4-7" transform="translate(177.924,-263.259)">
			<rect x="0" y="414.296" width="146.538" height="56.6929" class="st1"/>
			<text x="6.56" y="438.44" class="st2">Подання рішення про <tspan x="15.37" dy="1.2em" class="st3">планову діяльність</tspan></text>		</g>
		<g id="shape5-11" transform="translate(45.6778,-230.929)">
			<path d="M0 470.99 L96.02 470.99 L96.02 450.99 L0 450.99 L0 470.99 Z" class="st4"/>
			<text x="22.06" y="465.19" class="st5">Скринінг</text>		</g>
		<g id="shape6-14" transform="translate(335.43,-263.259)">
			<rect x="0" y="414.296" width="146.538" height="56.6929" class="st1"/>
			<text x="25.65" y="430.04" class="st2">Оприлюднення <tspan x="15.92" dy="1.2em" class="st3">Повідомлення про </tspan><tspan
						x="15.37" dy="1.2em" class="st3">планову діяльність</tspan></text>		</g>
		<g id="shape7-19" transform="translate(0.375,-370.897)">
			<rect x="0" y="400.122" width="86.8819" height="70.8661" class="st1"/>
			<text x="16.68" y="422.96" class="st2">Заявник, <tspan x="8.99" dy="1.2em" class="st3">пропонент</tspan>, <tspan
						x="10.51" dy="1.2em" class="st3">розробник</tspan></text>		</g>
		<g id="shape8-24" transform="translate(112.211,-370.897)">
			<rect x="0" y="400.122" width="103.89" height="70.8661" class="st1"/>
			<text x="7.58" y="422.96" class="st2">Компетентний <tspan x="11.39" dy="1.2em" class="st3">орган в сфері </tspan><tspan
						x="38.58" dy="1.2em" class="st3">ОВД</tspan></text>		</g>
		<g id="shape9-29" transform="translate(241.055,-370.897)">
			<rect x="0" y="400.122" width="97.0236" height="70.8661" class="st1"/>
			<text x="8.21" y="439.76" class="st2">Громадскість</text>		</g>
		<g id="shape10-32" transform="translate(363.033,-370.897)">
			<rect x="0" y="400.122" width="72.1049" height="70.8661" class="st1"/>
			<text x="5.23" y="422.96" class="st2">Експертна <tspan x="12.18" dy="1.2em" class="st3">комісія</tspan>, <tspan
						x="8.49" dy="1.2em" class="st3">експерти</tspan></text>		</g>
		<g id="shape11-37" transform="translate(460.092,-370.897)">
			<path d="M0 470.99 L96.02 470.99 L96.02 400.12 L0 400.12 L0 470.99 Z" class="st6"/>
			<text x="4.67" y="422.96" class="st2">Консультанти, <tspan x="9.45" dy="1.2em" class="st3">фасілітатори </tspan><tspan
						x="32.23" dy="1.2em" class="st3">тощо</tspan></text>		</g>
		<g id="shape12-42" transform="translate(20.4189,-131.036)">
			<rect x="0" y="397.367" width="146.538" height="73.622" class="st1"/>
			<text x="34.6" y="413.18" class="st2">Зауваження, <tspan x="38.45" dy="1.2em" class="st3">пропозиції</tspan>, <tspan
						x="7.99" dy="1.2em" class="st3">визначення завдань і </tspan><tspan x="13.92" dy="1.2em" class="st3">обсягів досліджень</tspan></text>		</g>
		<g id="shape13-48" transform="translate(45.6778,-106.283)">
			<path d="M0 470.99 L96.02 470.99 L96.02 450.99 L0 450.99 L0 470.99 Z" class="st4"/>
			<text x="22.76" y="465.19" class="st5">Скопінг</text>		</g>
		<g id="shape14-51" transform="translate(177.924,-146.587)">
			<rect x="0" y="428.469" width="146.538" height="42.5197" class="st1"/>
			<text x="4.64" y="453.93" class="st2">Підготовка звіту з ОВД</text>		</g>
		<g id="shape15-54" transform="translate(335.43,-139.5)">
			<rect x="0" y="414.296" width="146.538" height="56.6929" class="st1"/>
			<text x="36.82" y="430.04" class="st2">Громадське <tspan x="13.54" dy="1.2em" class="st3">обговорення звіту з </tspan><tspan
						x="59.9" dy="1.2em" class="st3">ОВД</tspan></text>		</g>
		<g id="shape16-59" transform="translate(20.4189,-15.6712)">
			<rect x="0" y="428.469" width="146.538" height="42.5197" class="st1"/>
			<text x="12.48" y="445.53" class="st2">Надання висновку з <tspan x="59.9" dy="1.2em" class="st3">ОВД</tspan></text>		</g>
		<g id="shape17-63" transform="translate(180.411,-0.12)">
			<rect x="0" y="397.367" width="146.538" height="73.622" class="st1"/>
			<text x="14.02" y="413.18" class="st2">Прийняття рішення <tspan x="18.37" dy="1.2em" class="st3">про провадження </tspan><tspan
						x="29.97" dy="1.2em" class="st3">господарської </tspan><tspan x="41.89" dy="1.2em" class="st3">діяльності</tspan></text>		</g>
		<g id="shape18-69" transform="translate(340.403,-15.6712)">
			<rect x="0" y="428.469" width="146.538" height="42.5197" class="st1"/>
			<text x="24.46" y="445.53" class="st2">Післяпроектний <tspan x="38.53" dy="1.2em" class="st3">моніторинг</tspan></text>		</g>
		<g id="shape19-73" transform="translate(85.1238,455.317) rotate(-90)">
			<rect x="0" y="431.052" width="311.811" height="39.937" class="st1"/>
			<text x="31.67" y="446.82" class="st2">Процедури, пов’язані з транскордонним <tspan x="111.45" dy="1.2em" class="st3">перенесенням</tspan></text>		</g>
		<g id="shape20-77" transform="translate(2.21752,-359.558)">
			<path d="M0 470.99 L556.2 470.99" class="st7"/>
		</g>
		<g id="shape21-80" transform="translate(0.375,-337.228)">
			<rect x="0" y="450.989" width="96.5512" height="20" class="st8"/>
			<text x="4" y="464.59" class="st9">ПРОЦЕС ОВД</text>		</g>
		<g id="shape22-83" transform="translate(0.375,-450.614)">
			<rect x="0" y="450.989" width="135.071" height="20" class="st8"/>
			<text x="4" y="464.59" class="st9">СТОРОНИ ПРОЦЕСУ ОВД</text>		</g>
		<g id="shape23-86" transform="translate(165.354,-284.519)">
			<path d="M1.6 463.9 L12.57 463.9" class="st7"/>
		</g>
		<g id="shape24-89" transform="translate(322.86,-284.519)">
			<path d="M1.6 463.9 L12.57 463.9" class="st7"/>
		</g>
		<g id="shape25-92" transform="translate(481.968,-291.606)">
			<path d="M0 470.99 L10.63 470.99 L10.63 542.18 L-388.28 542.18 L-388.28 557.94" class="st7"/>
		</g>
		<g id="shape26-95" transform="translate(165.354,-160.76)">
			<path d="M1.6 463.9 L12.57 463.9" class="st7"/>
		</g>
		<g id="shape27-98" transform="translate(322.86,-160.76)">
			<path d="M1.6 463.9 L12.57 463.9" class="st7"/>
		</g>
		<g id="shape28-101" transform="translate(481.968,-167.847)">
			<path d="M0 470.99 L10.63 470.99 L10.63 550.08 L-388.28 550.08 L-388.28 580.64" class="st7"/>
		</g>
		<g id="shape29-104" transform="translate(166.598,-29.8444)">
			<path d="M0.36 463.9 L13.81 463.9" class="st7"/>
		</g>
		<g id="shape30-107" transform="translate(326.59,-29.8444)">
			<path d="M0.36 463.9 L13.81 463.9" class="st7"/>
		</g>
	</g>
</svg>
