<svg xmlns="http://www.w3.org/2000/svg" fill="none" fill-rule="evenodd" stroke-linecap="square" stroke-miterlimit="3" color-interpolation-filters="sRGB" font-size="12" overflow="visible" viewBox="0 0 495.75 421.079">
	<style>
		.st1{fill:#fff;stroke:#000;stroke-linecap:butt;stroke-width:.75}.st2{fill:none}.st3,.st4{stroke:#000}.st3,.st4,.st6{stroke-linecap:butt;stroke-width:.75}.st4{fill:#000}.st6{fill:none;stroke:none}.st7{font-weight:700}.st7,.st8{fill:#000;font-family:Calibri;font-size:.75em}.st9{font-size:1em}
	</style>
	<path id="shape63-1" d="M0 188.579h457.5v232.5H0z" class="st1" transform="translate(18.75 -94.125)"/>
	<g id="shape64-3">
		<path d="M0 421.08l47.98-.47-47.98.47z" class="st2" transform="translate(348.622 -269.288)"/>
		<path d="M0 421.08l47.98-.47" class="st3" transform="translate(348.622 -269.288)"/>
	</g>
	<path id="shape65-6" d="M5.27 418.4l-5.22 2.68 1.28-2.64L0 415.83l5.27 2.57z" class="st4" transform="translate(395.265 -267.12)"/>
	<g id="shape66-8">
		<path d="M0 421.08h47.29H0z" class="st2" transform="translate(349.058 -228.773)"/>
		<path d="M0 421.08h47.29" class="st3" transform="translate(349.058 -228.773)"/>
	</g>
	<path id="shape67-11" d="M5.25 418.45L0 421.08l1.31-2.63L0 415.83l5.25 2.62z" class="st4" transform="translate(395.033 -226.148)"/>
	<g id="shape68-13">
		<path d="M0 420.76l47.6.32-47.6-.32z" class="st2" transform="translate(348.75 -183.803)"/>
		<path d="M0 420.76l47.6.32" class="st3" transform="translate(348.75 -183.803)"/>
	</g>
	<path id="shape69-16" d="M5.27 418.48L0 421.08l1.33-2.62-1.29-2.63 5.23 2.65z" class="st4" transform="translate(395.01 -181.185)"/>
	<path id="shape70-18" fill="#fff" stroke="#000" stroke-dasharray="3 1.5" stroke-linecap="butt" stroke-width=".75" d="M151.5 131.955h197.25v150H151.5v-150z"/>
	<g id="shape71-20">
		<path d="M0 410.279h117.05v10.8H0z" class="st6" transform="translate(72.725 -110.55)"/>
		<text x="30.4" y="418.38" class="st7" transform="translate(72.725 -110.55)">
			&quot;Environment&quot;
		</text>
	</g>
	<g id="shape72-23">
		<path d="M0 410.279h63.05v10.8H0z" class="st6" transform="translate(176.975 -305.55)"/>
		<text x="11.63" y="418.38" class="st7" transform="translate(176.975 -305.55)">
			ECONOMY
		</text>
	</g>
	<path id="shape73-26" d="M0 387.329h77.25v33.75H0z" class="st1" transform="translate(174 -242.625)"/>
	<g id="shape74-28">
		<path d="M0 387.329h77.25v33.75H0z" class="st6" transform="translate(174 -242.625)"/>
		<text x="13.69" y="401.5" class="st8" transform="translate(174 -242.625)">
			Production of <tspan x="4.18" class="st9" dy="1.2em">goods and services</tspan>
		</text>
	</g>
	<path id="shape75-32" d="M0 387.329h75.75v33.75H0z" class="st1" transform="translate(175.5 -199.125)"/>
	<g id="shape76-34">
		<path d="M0 410.279h81.05v10.8H0z" class="st6" transform="translate(172.475 -210.3)"/>
		<text x="22.67" y="418.38" class="st8" transform="translate(172.475 -210.3)">
			Transport
		</text>
	</g>
	<path id="shape77-37" d="M0 406.079h120v15H0z" class="st1" transform="translate(273.75 -319.125)"/>
	<g id="shape78-39">
		<path d="M0 410.279h108.05v10.8H0z" class="st6" transform="translate(279.725 -321.3)"/>
		<text x="31.64" y="418.38" class="st7" transform="translate(279.725 -321.3)">
			Living space
		</text>
	</g>
	<g id="shape79-42">
		<path d="M0 410.279h54.05v10.8H0z" class="st6" transform="translate(25.475 -305.55)"/>
		<text x="11.81" y="418.38" class="st7" transform="translate(25.475 -305.55)">
			SOURCE
		</text>
	</g>
	<g id="shape80-45">
		<path d="M0 410.279h36.05v10.8H0z" class="st6" transform="translate(421.475 -305.55)"/>
		<text x="9.27" y="418.38" class="st7" transform="translate(421.475 -305.55)">
			SINK
		</text>
	</g>
	<g id="shape81-48">
		<path d="M0 421.08h52.58H0z" class="st2" transform="translate(94.058 -266.715)"/>
		<path d="M0 421.08h52.58" class="st3" transform="translate(94.058 -266.715)"/>
	</g>
	<path id="shape82-51" d="M5.25 418.45L0 421.08l1.31-2.63L0 415.83l5.25 2.62z" class="st4" transform="translate(145.32 -264.09)"/>
	<path id="shape83-53" d="M0 376.079h75v45H0z" class="st1" transform="translate(18.75 -244.125)"/>
	<g id="shape84-55">
		<path d="M0 410.279h75v10.8H0z" class="st6" transform="translate(18.75 -261.3)"/>
		<text x="13.49" y="418.38" class="st8" transform="translate(18.75 -261.3)">
			Reserve fund
		</text>
	</g>
	<path id="shape85-58" d="M0 376.079h75v45H0z" class="st1" transform="translate(18.75 -187.875)"/>
	<g id="shape86-60">
		<path d="M0 396.43h68.031v24.65H0z" class="st6" transform="translate(21.927 -195.4)"/>
		<text x="14.41" y="406.05" class="st8" transform="translate(21.927 -195.4)">
			Exhaustive <tspan x="16.24" class="st9" dy="1.2em">resources</tspan>
		</text>
	</g>
	<path id="shape87-64" d="M0 376.079h75v45H0z" class="st1" transform="translate(18.75 -131.625)"/>
	<g id="shape88-66">
		<path d="M0 396.43h64.631v24.65H0z" class="st6" transform="translate(23.628 -139.15)"/>
		<text x="12.02" y="406.05" class="st8" transform="translate(23.628 -139.15)">
			Renewable <tspan x="14.54" class="st9" dy="1.2em">resources</tspan>
		</text>
	</g>
	<g id="shape89-70">
		<path d="M0 421.08l52-.49-52 .49z" class="st2" transform="translate(93.75 -154.125)"/>
		<path d="M0 421.08l52-.49" class="st3" transform="translate(93.75 -154.125)"/>
	</g>
	<path id="shape90-73" d="M5.27 418.4l-5.22 2.68 1.28-2.64L0 415.83l5.27 2.57z" class="st4" transform="translate(144.42 -151.972)"/>
	<path id="shape91-75" d="M0 376.079h75v45H0z" class="st1" transform="translate(401.25 -251.625)"/>
	<g id="shape92-77">
		<path d="M0 376.029h75.75v45.05H0z" class="st6" transform="translate(401.25 -251.625)"/>
		<text x="5.03" y="390.45" class="st8" transform="translate(401.25 -251.625)">
			Waste, emissions, <tspan x="17.49" class="st9" dy="1.2em">discharges</tspan>, <tspan x="18.13" class="st9" dy="1.2em">dissipation</tspan>
		</text>
	</g>
	<path id="shape93-82" d="M0 376.079h75v45H0z" class="st1" transform="translate(401.25 -206.625)"/>
	<g id="shape94-84">
		<path d="M0 376.079h75.75v45H0z" class="st6" transform="translate(401.25 -206.625)"/>
		<text x="16.68" y="390.48" class="st8" transform="translate(401.25 -206.625)">
			Abandoned <tspan x="10.5" class="st9" dy="1.2em">residences and </tspan><tspan x="8.34" class="st9" dy="1.2em">production sites</tspan>
		</text>
	</g>
	<path id="shape95-89" d="M0 387.329h75.75v33.75H0z" class="st1" transform="translate(175.5 -154.125)"/>
	<g id="shape96-91">
		<path d="M0 410.279h77.25v10.8H0z" class="st6" transform="translate(174.998 -165.3)"/>
		<text x="22.45" y="412.98" class="st8" transform="translate(174.998 -165.3)">
			Places of <tspan x="20.91" class="st9" dy="1.2em">residence</tspan>
		</text>
	</g>
	<path id="shape97-95" d="M0 376.079h75v45H0z" class="st1" transform="translate(401.25 -161.625)"/>
	<g id="shape98-97">
		<path d="M0 376.079h75.75v45H0z" class="st6" transform="translate(400.5 -161.625)"/>
		<text x="14.78" y="395.88" class="st8" transform="translate(400.5 -161.625)">
			Technogenic <tspan x="14.58" class="st9" dy="1.2em">emergencies</tspan>
		</text>
	</g>
	<path id="shape99-101" d="M0 376.079h75v45H0z" class="st1" transform="translate(401.25 -101.625)"/>
	<g id="shape100-103">
		<path d="M0 376.079h75.75v45H0z" class="st6" transform="translate(400.5 -101.625)"/>
		<text x="24.19" y="390.48" class="st8" transform="translate(400.5 -101.625)">
			Natural <tspan x="6.68" class="st9" dy="1.2em">emergencies and </tspan><tspan x="15.63" class="st9" dy="1.2em">degradation</tspan>
		</text>
	</g>
	<g id="shape101-108">
		<path d="M0 420.96l52 .12-52-.12z" class="st2" transform="translate(93.75 -210.255)"/>
		<path d="M0 420.96l52 .12" class="st3" transform="translate(93.75 -210.255)"/>
	</g>
	<path id="shape102-111" d="M5.26 418.46L0 421.08l1.32-2.63-1.31-2.62 5.25 2.63z" class="st4" transform="translate(144.435 -207.63)"/>
	<path id="shape103-113" d="M10.12 346.08h18v48.76h10.13l-19.13 26.24L0 394.84h10.12v-48.76z" class="st1" transform="translate(24.375 -327)"/>
	<g id="shape104-115">
		<path d="M0 410.279h47.604v10.8H0z" class="st6" transform="rotate(-90 -152.495 218.85)"/>
		<text x="11.28" y="418.38" class="st8" transform="rotate(-90 -152.495 218.85)">
			Energy
		</text>
	</g>
	<path id="shape105-118" d="M10.12 346.08h18v48.76h10.13l-19.13 26.24L0 394.84h10.12v-48.76z" class="st1" transform="translate(64.875 -327)"/>
	<g id="shape106-120">
		<path d="M0 410.279h47.604v10.8H0z" class="st6" transform="rotate(-90 -132.245 198.6)"/>
		<text x="10.98" y="418.38" class="st8" transform="rotate(-90 -132.245 198.6)">
			Matter
		</text>
	</g>
	<path id="shape107-123" d="M10.12 346.08h18v48.76h10.13l-19.13 26.24L0 394.84h10.12v-48.76z" class="st1" transform="translate(178.875 -327)"/>
	<g id="shape108-125">
		<path d="M0 410.279h39.678v10.8H0z" class="st6" transform="rotate(-90 -77.58 139.64)"/>
		<text x="8.13" y="418.38" class="st8" transform="rotate(-90 -77.58 139.64)">
			Goods
		</text>
	</g>
	<g id="shape109-128">
		<path d="M0 410.279h27.05v10.8H0z" class="st6" transform="translate(290.975 -208.8)"/>
		<text x="5.43" y="418.38" class="st7" transform="translate(290.975 -208.8)">
			GDP
		</text>
	</g>
	<path id="shape110-131" d="M10.12 346.08h18v48.76h10.13l-19.13 26.24L0 394.84h10.12v-48.76z" class="st1" transform="translate(216.375 -327)"/>
	<g id="shape111-133">
		<path d="M0 410.279h47.86v10.8H0z" class="st6" transform="rotate(-90 -56.202 123.141)"/>
		<text x="9.09" y="418.38" class="st8" transform="rotate(-90 -56.202 123.141)">
			Services
		</text>
	</g>
	<g id="shape112-136">
		<path d="M0 397.504h81.05v23.575H0z" class="st6" transform="translate(103.125 -356.975)"/>
		<text x="14.57" y="406.59" class="st7" transform="translate(103.125 -356.975)">
			INPUT FLOWS <tspan x="11.37" class="st9" dy="1.2em">FROM OUTSIDE</tspan>
		</text>
	</g>
	<path id="shape113-140" d="M10.12 346.08h18v48.76h10.13l-19.13 26.24L0 394.84h10.12v-48.76z" class="st1" transform="translate(20.625 -18.75)"/>
	<g id="shape114-142">
		<path d="M0 410.279h54.05v10.8H0z" class="st6" transform="rotate(-90 .238 374.367)"/>
		<text x="14.5" y="418.38" class="st8" transform="rotate(-90 .238 374.367)">
			Energy
		</text>
	</g>
	<path id="shape115-145" d="M10.12 346.08h18v48.76h10.13l-19.13 26.24L0 394.84h10.12v-48.76z" class="st1" transform="translate(61.125 -18.75)"/>
	<g id="shape116-147">
		<path d="M0 410.279h54.05v10.8H0z" class="st6" transform="rotate(-90 20.488 354.117)"/>
		<text x="14.2" y="418.38" class="st8" transform="rotate(-90 20.488 354.117)">
			Matter
		</text>
	</g>
	<path id="shape117-150" d="M10.12 346.08h18v48.76h10.13l-19.13 26.24L0 394.84h10.12v-48.76z" class="st1" transform="translate(177.375 -18.75)"/>
	<g id="shape118-152">
		<path d="M0 410.279h45.05v10.8H0z" class="st6" transform="rotate(-90 75.988 293.742)"/>
		<text x="10.82" y="418.38" class="st8" transform="rotate(-90 75.988 293.742)">
			Goods
		</text>
	</g>
	<path id="shape119-155" d="M10.12 346.08h18v48.76h10.13l-19.13 26.24L0 394.84h10.12v-48.76z" class="st1" transform="translate(214.875 -18.75)"/>
	<g id="shape120-157">
		<path d="M0 410.279h72.05v10.8H0z" class="st6" transform="rotate(-90 101.863 281.742)"/>
		<text x="21.18" y="418.38" class="st8" transform="rotate(-90 101.863 281.742)">
			Services
		</text>
	</g>
	<g id="shape121-160">
		<path d="M0 387.329h77.25v33.75H0z" class="st6" transform="translate(99.375 -48.2)"/>
		<text x="2.33" y="401.5" class="st7" transform="translate(99.375 -48.2)">
			OUTPUT FLOWS TO <tspan x="22.06" class="st9" dy="1.2em">OUTSIDE</tspan>
		</text>
	</g>
</svg>