<svg xmlns="http://www.w3.org/2000/svg" xmlns:xlink="http://www.w3.org/1999/xlink" xmlns:ev="http://www.w3.org/2001/xml-events" width="6.875in" height="5.87535in" viewBox="0 0 495 423.025" xml:space="preserve" color-interpolation-filters="sRGB" class="st10">
	<style type="text/css">
		.st1 {fill:#ffffff;stroke:#000000;stroke-linecap:butt;stroke-width:0.75}
		.st2 {fill:none}
		.st3 {stroke:#000000;stroke-linecap:butt;stroke-width:0.75}
		.st4 {fill:#000000;stroke:#000000;stroke-linecap:butt;stroke-width:0.75}
		.st5 {fill:#ffffff;stroke:#000000;stroke-dasharray:3,1.5;stroke-linecap:butt;stroke-width:0.75}
		.st6 {fill:none;stroke:none;stroke-linecap:butt;stroke-width:0.75}
		.st7 {fill:#000000;font-family:Calibri;font-size:0.75em;font-weight:bold}
		.st8 {fill:#000000;font-family:Calibri;font-size:0.75em}
		.st9 {font-size:1em}
		.st10 {fill:none;fill-rule:evenodd;font-size:12px;overflow:visible;stroke-linecap:square;stroke-miterlimit:3}
	</style><g transform="translate(18.75,-94.125)">
		<rect x="0" y="190.525" width="457.5" height="232.5" class="st1"/>
	</g><g transform="translate(348.622,-269.287)">
		<path d="M0 423.03L47.98 422.55 0 423.03Z" class="st2"/>
		<path d="M0 423.03L47.98 422.55" class="st3"/>
	</g><g transform="translate(395.265,-267.12)">
		<path d="M5.27 420.35L0.05 423.03 1.34 420.39 0 417.78 5.27 420.35Z" class="st4"/>
	</g><g transform="translate(348.75,-229.125)">
		<path d="M0 423.03L47.72 423.03 0 423.03Z" class="st2"/>
		<path d="M0 423.03L47.72 423.03" class="st3"/>
	</g><g transform="translate(395.16,-226.5)">
		<path d="M5.25 420.4L0 423.03 1.31 420.4 0 417.78 5.25 420.4Z" class="st4"/>
	</g><g transform="translate(348.75,-184.125)">
		<path d="M0 423.03L47.72 423.03 0 423.03Z" class="st2"/>
		<path d="M0 423.03L47.72 423.03" class="st3"/>
	</g><g transform="translate(395.16,-181.5)">
		<path d="M5.25 420.4L0 423.03 1.31 420.4 0 417.78 5.25 420.4Z" class="st4"/>
	</g><g transform="translate(151.5,-139.125)">
		<path d="M0 423.03L197.25 423.03 197.25 273.03 0 273.03 0 423.03Z" class="st5"/>
	</g><g transform="translate(55.1,-110.175)">
		<rect x="0" y="412.225" width="153.05" height="10.8" class="st6"/>
		<text x="54.6" y="420.32" class="st7">"Довкілля"</text>
	</g><g transform="translate(136.1,-305.175)">
		<rect x="0" y="412.225" width="144.05" height="10.8" class="st6"/>
		<text x="47.98" y="420.32" class="st7">ЕКОНОМІКА</text>
	</g><g transform="translate(174,-242.625)">
		<rect x="0" y="389.275" width="77.25" height="33.75" class="st1"/>
	</g><g transform="translate(174,-242.625)">
		<rect x="0" y="389.275" width="75.75" height="33.75" class="st6"/>
		<text x="12.31" y="403.45" class="st8">Виробництво  <tspan x="8.32" dy="1.2em" class="st9">товарів і послуг</tspan>
		</text>
	</g><g transform="translate(175.5,-199.125)">
		<rect x="0" y="389.275" width="75.75" height="33.75" class="st1"/>
	</g><g transform="translate(172.85,-209.175)">
		<rect x="0" y="412.225" width="81.05" height="10.8" class="st6"/>
		<text x="20.68" y="420.32" class="st8">Транспорт</text>
	</g><g transform="translate(273.75,-319.125)">
		<rect x="0" y="408.025" width="120" height="15" class="st1"/>
	</g><g transform="translate(229.85,-320.175)">
		<rect x="0" y="412.225" width="207.05" height="10.8" class="st6"/>
		<text x="69.15" y="420.32" class="st7">Життєвий простір</text>
	</g><g transform="translate(18.75,-305.175)">
		<rect x="0" y="412.225" width="81.05" height="10.8" class="st6"/>
		<text x="21.09" y="420.32" class="st7">ДЖЕРЕЛО</text>
	</g><g transform="translate(399,-305.175)">
		<rect x="0" y="412.225" width="77.25" height="10.8" class="st6"/>
		<text x="16.91" y="420.32" class="st7">ПОГЛИНАЧ</text>
	</g><g transform="translate(93.75,-266.625)">
		<path d="M0 423.03L52.97 423.03 0 423.03Z" class="st2"/>
		<path d="M0 423.03L52.97 423.03" class="st3"/>
	</g><g transform="translate(145.41,-264)">
		<path d="M5.25 420.4L0 423.03 1.31 420.4 0 417.78 5.25 420.4Z" class="st4"/>
	</g><g transform="translate(18.75,-244.125)">
		<rect x="0" y="378.025" width="75" height="45" class="st1"/>
	</g><g transform="translate(18.75,-244.125)">
		<rect x="0" y="378.025" width="75" height="45" class="st6"/>
		<text x="15.53" y="397.82" class="st8">Заповідний <tspan x="27.4" dy="1.2em" class="st9">фонд</tspan>
		</text>
	</g><g transform="translate(18.75,-187.875)">
		<rect x="0" y="378.025" width="75" height="45" class="st1"/>
	</g><g transform="translate(18.75,-187.875)">
		<rect x="0" y="378.025" width="77.25" height="45" class="st6"/>
		<text x="21.25" y="397.82" class="st8">Вичерпні <tspan x="23.38" dy="1.2em" class="st9">ресурси</tspan>
		</text>
	</g><g transform="translate(18.75,-131.625)">
		<rect x="0" y="378.025" width="75" height="45" class="st1"/>
	</g><g transform="translate(18.75,-131.625)">
		<rect x="0" y="378.025" width="75" height="45" class="st6"/>
		<text x="12.1" y="397.82" class="st8">Поновлювані <tspan x="22.26" dy="1.2em" class="st9">ресурси</tspan>
		</text>
	</g><g transform="translate(93.75,-154.125)">
		<path d="M0 423.03L52.22 422.34 0 423.03Z" class="st2"/>
		<path d="M0 423.03L52.22 422.34" class="st3"/>
	</g><g transform="translate(144.63,-152.167)">
		<path d="M5.28 420.33L0.07 423.03 1.34 420.38 0 417.78 5.28 420.33Z" class="st4"/>
	</g><g transform="translate(401.25,-251.625)">
		<rect x="0" y="378.025" width="75" height="45" class="st1"/>
	</g><g transform="translate(401.25,-251.625)">
		<rect x="0" y="378.025" width="75" height="45" class="st6"/>
		<text x="8.09" y="397.82" class="st8">Сміття, викиди<tspan x="4.61" dy="1.2em" class="st9">скиди, дисипація</tspan>
		</text>
	</g><g transform="translate(401.25,-206.625)">
		<rect x="0" y="378.025" width="75" height="45" class="st1"/>
	</g><g transform="translate(401.25,-206.625)">
		<rect x="0" y="378.025" width="75" height="45" class="st6"/>
		<text x="9.03" y="392.43" class="st8">Покинуті місця  <tspan x="11.58" dy="1.2em" class="st9">проживання і  </tspan>
			<tspan x="12.45" dy="1.2em" class="st9">виробництва</tspan>
		</text>
	</g><g transform="translate(175.5,-154.125)">
		<rect x="0" y="389.275" width="75.75" height="33.75" class="st1"/>
	</g><g transform="translate(172.5,-154.792)">
		<rect x="0" y="389.943" width="81.05" height="33.0825" class="st6"/>
		<text x="29.17" y="403.78" class="st8">Місця <tspan x="16.66" dy="1.2em" class="st9">проживання</tspan>
		</text>
	</g><g transform="translate(401.25,-161.625)">
		<rect x="0" y="378.025" width="75" height="45" class="st1"/>
	</g><g transform="translate(401.25,-177.675)">
		<rect x="0" y="412.225" width="75" height="10.8" class="st6"/>
		<text x="10.48" y="420.32" class="st8">Техногенні НС</text>
	</g><g transform="translate(401.25,-101.625)">
		<rect x="0" y="378.025" width="75" height="45" class="st1"/>
	</g><g transform="translate(401.25,-101.625)">
		<rect x="0" y="378.025" width="75" height="45" class="st6"/>
		<text x="13" y="397.82" class="st8">Природні НС  <tspan x="11.49" dy="1.2em" class="st9">та деградація</tspan>
		</text>
	</g><g transform="translate(93.75,-210.375)">
		<path d="M0 423.03L52.22 423.03 0 423.03Z" class="st2"/>
		<path d="M0 423.03L52.22 423.03" class="st3"/>
	</g><g transform="translate(144.66,-207.75)">
		<path d="M5.25 420.4L0 423.03 1.31 420.4 0 417.78 5.25 420.4Z" class="st4"/>
	</g><g transform="translate(24.375,-327)">
		<path d="M10.12 348.03L28.12 348.03 28.12 396.78 38.25 396.78 19.12 423.03 0 396.78 10.12 396.78 10.12 348.03Z" class="st1"/>
	</g><g transform="translate(-372.7,73.175) rotate(-90)">
		<rect x="0" y="412.225" width="54.05" height="10.8" class="st6"/>
		<text x="13.1" y="420.32" class="st8">Енергія</text>
	</g><g transform="translate(64.875,-327)">
		<path d="M10.12 348.03L28.12 348.03 28.12 396.78 38.25 396.78 19.12 423.03 0 396.78 10.12 396.78 10.12 348.03Z" class="st1"/>
	</g><g transform="translate(-332.2,73.175) rotate(-90)">
		<rect x="0" y="412.225" width="54.05" height="10.8" class="st6"/>
		<text x="11.51" y="420.32" class="st8">Матерія</text>
	</g><g transform="translate(178.875,-327)">
		<path d="M10.12 348.03L28.12 348.03 28.12 396.78 38.25 396.78 19.12 423.03 0 396.78 10.12 396.78 10.12 348.03Z" class="st1"/>
	</g><g transform="translate(-218.575,68.3) rotate(-90)">
		<rect x="0" y="412.225" width="47.275" height="10.8" class="st6"/>
		<text x="9.96" y="420.32" class="st8">Товари</text>
	</g><g transform="translate(191.6,-208.425)">
		<rect x="0" y="412.225" width="225.05" height="10.8" class="st6"/>
		<text x="104.48" y="420.32" class="st8">ВНП</text>
	</g><g transform="translate(216.375,-327)">
		<path d="M10.12 348.03L28.12 348.03 28.12 396.78 38.25 396.78 19.12 423.03 0 396.78 10.12 396.78 10.12 348.03Z" class="st1"/>
	</g><g transform="translate(-181.075,72.8) rotate(-90)">
		<rect x="0" y="412.225" width="54.05" height="10.8" class="st6"/>
		<text x="11.63" y="420.32" class="st8">Послуги</text>
	</g><g transform="translate(103.125,-346.425)">
		<rect x="0" y="389.275" width="75" height="33.75" class="st6"/>
		<text x="5.58" y="403.45" class="st7">ВХІДНІ  ПОТОКИ <tspan x="22.36" dy="1.2em" class="st9">ІЗЗОВНІ</tspan>
		</text>
	</g><g transform="translate(20.625,-18.75)">
		<path d="M10.12 348.03L28.12 348.03 28.12 396.78 38.25 396.78 19.12 423.03 0 396.78 10.12 396.78 10.12 348.03Z" class="st1"/>
	</g><g transform="translate(-376.45,381.425) rotate(-90)">
		<rect x="0" y="412.225" width="63.05" height="10.8" class="st6"/>
		<text x="17.6" y="420.32" class="st8">Енергія</text>
	</g><g transform="translate(61.125,-18.75)">
		<path d="M10.12 348.03L28.12 348.03 28.12 396.78 38.25 396.78 19.12 423.03 0 396.78 10.12 396.78 10.12 348.03Z" class="st1"/>
	</g><g transform="translate(-335.95,381.425) rotate(-90)">
		<rect x="0" y="412.225" width="63.05" height="10.8" class="st6"/>
		<text x="16.01" y="420.32" class="st8">Матерія</text>
	</g><g transform="translate(177.375,-18.75)">
		<path d="M10.12 348.03L28.12 348.03 28.12 396.78 38.25 396.78 19.12 423.03 0 396.78 10.12 396.78 10.12 348.03Z" class="st1"/>
	</g><g transform="translate(-220.075,376.55) rotate(-90)">
		<rect x="0" y="412.225" width="54.05" height="10.8" class="st6"/>
		<text x="13.35" y="420.32" class="st8">Товари</text>
	</g><g transform="translate(214.875,-18.75)">
		<path d="M10.12 348.03L28.12 348.03 28.12 396.78 38.25 396.78 19.12 423.03 0 396.78 10.12 396.78 10.12 348.03Z" class="st1"/>
	</g><g transform="translate(-182.575,381.05) rotate(-90)">
		<rect x="0" y="412.225" width="63.05" height="10.8" class="st6"/>
		<text x="16.13" y="420.32" class="st8">Послуги</text>
	</g><g transform="translate(26.6,-56.925)">
		<rect x="0" y="412.225" width="225.05" height="10.8" class="st6"/>
		<text x="78.69" y="414.92" class="st7">ВИХІДНІ ПОТОКИ <tspan x="95.19" dy="1.2em" class="st9">НАЗОВНІ</tspan>
		</text>
	</g>
</svg>