<svg xmlns="http://www.w3.org/2000/svg" xmlns:xlink="http://www.w3.org/1999/xlink" width="746.863" height="691.18" fill="none" fill-rule="evenodd" stroke-linecap="square" stroke-miterlimit="3" color-interpolation-filters="sRGB" font-size="12" overflow="visible" viewBox="0 0 560.147 518.385">
  <style>
    .st1{fill:#dde2cd;stroke:#000;stroke-linecap:round;stroke-linejoin:round;stroke-width:.24}.st2{fill:#000;font-family:Arial;font-size:1.00001em}.st3{font-size:1em}.st4,.st5{fill:none;stroke:none;stroke-linecap:round;stroke-linejoin:round;stroke-width:.75}.st5{stroke:#000;stroke-dasharray:5.25,3.75}.st6{fill:#000;font-family:Calibri;font-size:1.00001em}.st7,.st8{stroke:#000;stroke-linecap:round;stroke-linejoin:round;stroke-width:.75}.st8{marker-end:url(#mrkr5-69)}
  </style>
  <defs id="Markers">
    <path id="lend5" d="M2 1L0 0l1.981-.993A2.25 2.25 0 0 0 1.985 1"/>
    <marker id="mrkr5-69" fill="#000" stroke="#000" stroke-width=".229" orient="auto" overflow="visible" refX="-7.63">
      <use transform="scale(-4.36)" xlink:href="#lend5"/>
    </marker>
  </defs>
  <g id="shape3-11">
    <path d="M0 498.385h181.287v20H0z" class="st4" transform="translate(18.375 -480.01)"/>
    <text x="4" y="511.99" class="st2" transform="translate(18.375 -480.01)">
      PARTIES OF EIA PROCESS
    </text>
  </g>
  <a xlink:href="#Parties (principal roles) of EIA process">
  <g id="shape1-1">
    <path d="M0 461.692h93.138v56.693H0z" class="st1" transform="translate(18.375 -414.97)"/>
    <text x="20.22" y="479.24" class="st2" transform="translate(18.375 -414.97)">
      Applicant, <tspan x="17.88" class="st3" dy="1.2em">proponent</tspan>, <tspan x="20.22" class="st3" dy="1.2em">developer</tspan>
    </text>
  </g>
  <g id="shape5-14">
    <path d="M0 461.692h93.138v56.693H0z" class="st1" transform="translate(125.687 -414.97)"/>
    <text x="5.88" y="486.44" class="st2" transform="translate(125.687 -414.97)">
      Competent EIA <tspan x="23.56" class="st3" dy="1.2em">authority</tspan>
    </text>
  </g>
  <g id="shape6-18">
    <path d="M0 461.692h93.138v56.693H0z" class="st1" transform="translate(232.998 -414.97)"/>
    <text x="18.89" y="493.64" class="st2" transform="translate(232.998 -414.97)">
      The public
    </text>
  </g>
  </a>
  <g id="shape7-21">
    <path d="M0 461.692h93.138v56.693H0z" class="st1" transform="translate(340.31 -414.97)"/>
    <text x="29.23" y="479.24" class="st2" transform="translate(340.31 -414.97)">
      Expert <tspan x="13.23" class="st3" dy="1.2em">commission</tspan>, <tspan x="26.89" class="st3" dy="1.2em">experts</tspan>
    </text>
  </g>
  <g id="shape8-26">
    <path d="M0 461.692h93.138v56.693H0z" class="st1" transform="translate(447.621 -414.97)"/>
    <text x="13.22" y="479.24" class="st2" transform="translate(447.621 -414.97)">
      Consultants, <tspan x="14.56" class="st3" dy="1.2em">moderators</tspan>, <tspan x="32.89" class="st3" dy="1.2em">other</tspan>
    </text>
  </g>
  <g id="shape9-31">
    <path d="M0 498.385h113.386v20H0z" class="st4" transform="translate(18.375 -372.451)"/>
    <text x="4" y="511.99" class="st2" transform="translate(18.375 -372.451)">
      EIA PROCESS
    </text>
  </g>
  <a xlink:href="#Preliminary EIA – screening">
  <g id="shape2-6">
    <path d="M0 447.519h113.386v70.866H0z" class="st1" transform="translate(21.412 -294.498)"/>
    <text x="9.33" y="472.15" class="st2" transform="translate(21.412 -294.498)">
      Determination the <tspan x="25.34" class="st3" dy="1.2em">need of EIA </tspan><tspan x="11.35" class="st3" dy="1.2em">(</tspan>Preliminary EIA)
    </text>
  </g>
  <g id="shape26-58">
    <path d="M0 518.38h73.83v-20H0v20z" class="st5" transform="translate(41.19 -273.238)"/>
    <text x="13.05" y="511.99" class="st6" transform="translate(41.19 -273.238)">
      Screening
    </text>
  </g>
  </a>
  <g id="shape10-34">
    <path d="M0 447.519h113.386v70.866H0z" class="st1" transform="translate(168.206 -152.766)"/>
    <text x="14.67" y="479.35" class="st2" transform="translate(168.206 -152.766)">
      Working out the <tspan x="29.68" class="st3" dy="1.2em">EIA report</tspan>
    </text>
  </g>
  <g id="shape11-38">
    <path d="M0 447.519h113.386v70.866H0z" class="st1" transform="translate(168.206 -294.498)"/>
    <text x="23.67" y="472.15" class="st2" transform="translate(168.206 -294.498)">
      Applying the <tspan x="4.99" class="st3" dy="1.2em">decision of planned </tspan><tspan x="38.36" class="st3" dy="1.2em">activity</tspan>
    </text>
  </g>
  <g id="shape12-43">
    <path d="M0 447.519h113.386v70.866H0z" class="st1" transform="translate(320.062 -294.498)"/>
    <text x="19" y="472.15" class="st2" transform="translate(320.062 -294.498)">
      Publishing the <tspan x="11.33" class="st3" dy="1.2em">notification about </tspan><tspan x="15.33" class="st3" dy="1.2em">planned activity</tspan>
    </text>
  </g>
  <g id="shape24-48">
    <path d="M0 447.519h113.386v70.866H0z" class="st1" transform="translate(21.412 -152.766)"/>
    <text x="26.02" y="464.95" class="st2" transform="translate(21.412 -152.766)">
      Comments, <tspan x="13.67" class="st3" dy="1.2em">determination of </tspan><tspan x="6.66" class="st3" dy="1.2em">tasks and scope of </tspan><tspan x="33.35" class="st3" dy="1.2em">research</tspan>
    </text>
  </g>
  <g id="shape25-54">
    <path d="M0 447.519h113.386v70.866H0z" class="st1" transform="translate(320.062 -152.766)"/>
    <text x="10.67" y="479.35" class="st2" transform="translate(320.062 -152.766)">
      Public discussion <tspan x="13" class="st3" dy="1.2em">of the EIA report</tspan>
    </text>
  </g>
  <path id="shape27-61" d="M0 518.38h523.4" class="st7" transform="translate(18.375 -400.797)"/>
  <path id="shape28-64" d="M0 511.3h27.69" class="st8" transform="translate(134.798 -322.844)"/>
  <path id="shape29-70" d="M0 511.3h32.75" class="st8" transform="translate(281.592 -322.844)"/>
  <path id="shape30-75" d="M0 518.38h26.32" class="st7" transform="translate(433.448 -329.931)"/>
  <path id="shape31-78" d="M382.68 412.09v70.86H0l.85 29.71" class="st8" transform="translate(77.093 -223.632)"/>
  <path id="shape32-83" d="M0 511.3h27.69" class="st8" transform="translate(134.798 -181.112)"/>
  <path id="shape33-88" d="M0 511.3h32.75" class="st8" transform="translate(281.592 -181.112)"/>
  <g id="shape34-93">
    <path d="M0 447.519h113.386v70.866H0z" class="st1" transform="translate(21.412 -18.12)"/>
    <text x="27.67" y="472.15" class="st2" transform="translate(21.412 -18.12)">
      Issuing the <tspan x="8.66" class="st3" dy="1.2em">conclusion on EIA </tspan><tspan x="41.02" class="st3" dy="1.2em">report</tspan>
    </text>
  </g>
  <g id="shape35-98">
    <path d="M0 518.38h73.83v-20H0v20z" class="st5" transform="translate(41.19 -132.766)"/>
    <text x="17.95" y="511.99" class="st6" transform="translate(41.19 -132.766)">
      Scoping
    </text>
  </g>
  <g id="shape36-101">
    <path d="M0 447.519h113.386v70.866H0z" class="st1" transform="translate(168.206 -18.12)"/>
    <text x="4.33" y="472.15" class="st2" transform="translate(168.206 -18.12)">
      Decision making on <tspan x="8.33" class="st3" dy="1.2em">permit for planned </tspan><tspan x="14.68" class="st3" dy="1.2em">activity </tspan>(project)
    </text>
  </g>
  <g id="shape37-106">
    <path d="M0 447.519h113.386v70.866H0z" class="st1" transform="translate(320.062 -18.12)"/>
    <text x="24.68" y="479.35" class="st2" transform="translate(320.062 -18.12)">
      Post-project <tspan x="28.68" class="st3" dy="1.2em">monitoring</tspan>
    </text>
  </g>
  <path id="shape38-110" d="M0 511.3h27.69" class="st8" transform="translate(134.798 -46.467)"/>
  <path id="shape40-115" d="M355.95 419.17h28.28v74.53L0 494.29l.46 18.37" class="st8" transform="translate(77.498 -88.986)"/>
  <path id="shape41-120" d="M0 511.3h32.75" class="st8" transform="translate(281.592 -46.467)"/>
  <g id="shape43-125">
    <path d="M0 482.952h348.661v35.433H0z" class="st1" transform="rotate(-90 261.32 238.945)"/>
    <text x="54.93" y="504.27" class="st2" transform="rotate(-90 261.32 238.945)">
      Procedures related to transboundary transfer
    </text>
  </g>
</svg>